<?xml version="1.0" encoding="UTF-8" standalone="no"?>
<!-- Created with Inkscape (http://www.inkscape.org/) -->

<svg
   width="96.913261mm"
   height="24.387022mm"
   viewBox="0 0 96.913261 24.387022"
   version="1.1"
   id="svg5"
   inkscape:export-filename="D:\Flutter_Projects\FGC\assets\images\cash.png"
   inkscape:export-xdpi="96"
   inkscape:export-ydpi="96"
   inkscape:version="1.1.1 (3bf5ae0d25, 2021-09-20)"
   sodipodi:docname="cash.svg"
   xmlns:inkscape="http://www.inkscape.org/namespaces/inkscape"
   xmlns:sodipodi="http://sodipodi.sourceforge.net/DTD/sodipodi-0.dtd"
   xmlns="http://www.w3.org/2000/svg"
   xmlns:svg="http://www.w3.org/2000/svg">
  <sodipodi:namedview
     id="namedview7"
     pagecolor="#ffffff"
     bordercolor="#666666"
     borderopacity="1.0"
     inkscape:pageshadow="2"
     inkscape:pageopacity="0.0"
     inkscape:pagecheckerboard="0"
     inkscape:document-units="mm"
     showgrid="false"
     inkscape:zoom="2.1215981"
     inkscape:cx="193.48622"
     inkscape:cy="2.1210426"
     inkscape:window-width="1920"
     inkscape:window-height="1027"
     inkscape:window-x="1912"
     inkscape:window-y="22"
     inkscape:window-maximized="1"
     inkscape:current-layer="layer1" />
  <defs
     id="defs2" />
  <g
     inkscape:label="Layer 1"
     inkscape:groupmode="layer"
     id="layer1"
     transform="translate(-58.40192,-22.263083)">
    <g
       id="g27228">
      <path
         d="m 70.283038,46.011213 q 2.257356,0 4.618669,-1.024721 2.376164,-1.039572 3.757309,-3.04446 0,-0.193063 -0.178212,-0.326723 -0.163362,-0.133659 -0.371276,-0.133659 -2.227654,2.702887 -6.549302,2.702887 -4.559265,0 -6.890876,-2.74744 -2.31676,-2.762291 -2.31676,-6.861174 0,-1.856378 0.400978,-3.579097 0.415829,-1.73757 1.277188,-3.311778 0.876211,-1.58906 2.480121,-2.569228 1.618762,-0.980167 3.772161,-0.980167 1.470251,0 2.717737,0.460381 1.247486,0.460382 2.049442,1.084125 0.801955,0.623743 1.559357,1.678166 0.772254,1.039572 1.15838,1.811825 0.400978,0.757402 0.950466,1.930633 0.445531,-0.0594 0.549488,-0.326722 -1.098976,-4.410755 -3.32663,-6.044367 -2.212802,-1.648464 -5.65824,-1.648464 -1.395997,0 -2.851397,0.341573 -1.455401,0.326723 -2.999907,1.188082 -1.529656,0.846509 -2.702887,2.108846 -1.173231,1.247486 -1.930633,3.296928 -0.757402,2.03459 -0.757402,4.559264 0,2.524675 0.757402,4.559265 0.757402,2.034591 1.930633,3.282077 1.173231,1.247486 2.702887,2.093994 1.544506,0.831658 2.999907,1.15838 1.4554,0.341574 2.851397,0.341574 z M 78.347144,31.76908 q -0.638594,-1.425699 -1.173231,-2.346462 -0.534636,-0.935615 -1.425698,-2.079144 -0.891061,-1.15838 -2.123697,-1.796974 -1.232635,-0.638594 -2.76229,-0.772253 -1.693017,0.133659 -2.955354,1.084125 -1.262337,0.935614 -1.960336,2.405866 -0.683147,1.470251 -1.009869,3.059311 -0.311872,1.574209 -0.311872,3.252374 0,3.742459 1.88608,6.281984 1.886081,2.539525 5.628539,2.717738 3.62365,-0.178213 5.687943,-2.702887 0.57919,0 1.009869,0.386127 0.43068,0.371275 0.43068,0.891061 -1.499954,2.183101 -4.05433,3.32663 -2.554376,1.143529 -4.93054,1.143529 -1.485103,0 -3.014758,-0.356425 -1.514805,-0.341573 -3.148418,-1.217784 -1.618762,-0.891061 -2.866248,-2.212803 -1.247486,-1.321741 -2.03459,-3.460288 -0.787104,-2.153399 -0.787104,-4.796882 0,-2.76229 0.816806,-4.93054 0.816806,-2.183101 2.093994,-3.489991 1.277189,-1.30689 2.985057,-2.16825 1.707867,-0.87621 3.311778,-1.188082 1.618762,-0.326722 3.252375,-0.326722 2.227654,0 4.841434,0.594041 2.61378,0.594041 3.742458,0.742551 -0.490083,1.915782 -0.386126,3.371183 0.103957,1.440549 0.846508,3.534544 -0.43068,0.87621 -1.58906,1.054423 z"
         id="path6101"
         style="font-size:30.4149px;line-height:1.25;font-family:'Jacques Francois Shadow';-inkscape-font-specification:'Jacques Francois Shadow, Normal';fill:#ffffff;fill-opacity:1;stroke:#000000;stroke-width:0.06;stroke-miterlimit:4;stroke-dasharray:none;stroke-opacity:1" />
      <path
         d="m 106.44529,44.793429 q -0.83166,-0.04455 -1.61877,-0.118808 -0.77225,-0.08911 -1.41084,-0.237617 -0.6386,-0.14851 -1.08413,-0.386126 -0.43068,-0.252468 -0.56434,-0.623744 l -8.212615,-20.2865 q -0.252467,0.01485 -0.490084,0.207914 -0.103957,1.841527 -1.128678,2.955354 l 0.341574,0.876211 -6.267133,15.756938 q -0.594041,1.485102 -3.653352,1.856378 -0.08911,0.207914 -0.08911,0.371275 0,0.178213 0.08911,0.356425 1.693017,-0.0594 2.717738,-0.08911 1.039571,-0.0297 1.425698,-0.0297 0.341574,0 1.544507,0.0297 1.217784,0.0297 3.296927,0.08911 0.08911,-0.178212 0.08911,-0.356425 0,-0.163361 -0.08911,-0.371275 -1.232635,-0.118808 -2.004888,-0.252468 -0.772253,-0.14851 -1.202933,-0.311871 -0.43068,-0.163361 -0.57919,-0.356425 -0.14851,-0.207914 -0.14851,-0.460382 0,-0.163361 0.0594,-0.326722 l 2.168249,-5.435475 q 1.648464,-0.0297 2.658334,-0.04455 1.024721,-0.01485 1.410847,-0.01485 0.846509,0 1.499954,0.01485 0.668296,0 1.143529,0.01485 l 2.153399,5.465177 q 0.07425,0.222765 0.07425,0.341573 0,0.400978 -0.415829,0.71285 -0.400978,0.311871 -0.995019,0.430679 l -1.60391,0.222766 q -0.08911,0.207914 -0.08911,0.371275 0,0.178213 0.08911,0.356425 1.262337,-0.04455 2.554376,-0.07426 1.30689,-0.0297 2.673179,-0.0297 1.3663,0 2.7623,0.0297 1.41084,0.0297 2.89595,0.07426 0.10395,-0.207914 0.10395,-0.356425 0,-0.08911 -0.0297,-0.178212 -0.0297,-0.08911 -0.0743,-0.193063 z M 93.703105,36.432302 q -2.153398,0 -3.549395,-0.0594 L 92.975405,29.0959 h 0.0594 l 2.836546,7.306705 q -0.801955,0.0297 -2.16825,0.0297 z m -0.697998,-5.777049 -1.975186,5.138454 q 1.796974,0.08911 3.950373,0.0297 z m 13.900563,13.588688 q 0.37127,0.891061 -0.0297,1.88608 H 95.099102 q -0.356425,-1.024721 0,-1.88608 1.618761,-0.08911 2.287058,-0.326723 0.668296,-0.252467 0.460381,-0.801955 l -1.945484,-4.915689 q -2.74744,-0.103958 -5.881006,0.0594 l -1.915782,4.915689 q -0.08911,0.252467 0.133659,0.460382 0.237616,0.193063 0.757402,0.311871 0.519786,0.118809 1.217784,0.193064 0.697999,0.07426 1.574209,0.103957 0.371276,0.891061 -0.0297,1.88608 -4.871136,-0.178212 -9.816528,0 -0.400977,-0.995019 -0.0297,-1.88608 3.059311,-0.356425 3.460289,-1.336592 l 6.267133,-15.756938 q -0.0594,-0.118808 -0.237617,-0.534637 -0.163361,-0.43068 -0.193063,-0.564339 1.15838,-1.173231 1.277188,-3.029609 1.306891,-0.638594 3.074163,-0.727701 l 8.331422,20.672628 q 0.28217,0.697998 0.89106,0.935614 0.60889,0.222766 2.1237,0.341574 z"
         id="path6103"
         style="font-size:30.4149px;line-height:1.25;font-family:'Jacques Francois Shadow';-inkscape-font-specification:'Jacques Francois Shadow, Normal';fill:#ffffff;stroke:#000000;stroke-width:0.06;stroke-miterlimit:4;stroke-dasharray:none;stroke-opacity:1" />
      <path
         d="m 117.55385,22.472338 q 2.1237,0 3.90582,0.594041 1.78212,0.594041 3.20782,0.772253 -0.7871,2.762291 -0.0594,5.955261 -0.7574,0.638594 -1.73757,0.742552 -0.11881,-0.28217 -0.43068,-1.173231 -0.29702,-0.905913 -0.57919,-1.485103 -0.26732,-0.57919 -0.7574,-1.321741 -0.47524,-0.742552 -1.27719,-1.173231 -0.78711,-0.445531 -1.81183,-0.608892 -1.49995,0.133659 -2.31676,0.920763 -0.8168,0.787105 -0.8168,2.034591 0,1.277188 0.65344,2.108845 0.65345,0.816807 1.69302,1.232635 1.05442,0.400978 2.31676,0.71285 1.26234,0.29702 2.50982,0.742551 1.24749,0.43068 2.28706,1.143529 1.05442,0.697998 1.70787,2.093994 0.65344,1.395997 0.65344,3.400885 0,2.435568 -1.41085,4.187989 -1.41084,1.752421 -3.32662,2.509824 -1.91579,0.757402 -3.92068,0.757402 -4.41075,0 -8.7324,-1.945484 0.0891,-1.915783 0.0891,-2.346462 0,-2.405866 -0.46038,-5.168157 1.33659,-0.638594 2.98505,-0.0594 0.54949,3.371182 2.1237,5.168157 1.58906,1.796974 3.47514,2.004888 1.76727,-0.118808 2.71774,-1.143529 0.96531,-1.039572 0.96531,-2.628631 0,-1.336593 -0.62374,-2.257356 -0.62374,-0.935615 -1.64846,-1.44055 -1.02472,-0.519786 -2.22766,-0.935614 -1.18808,-0.415829 -2.40586,-0.876211 -1.21779,-0.475233 -2.24251,-1.128678 -1.00987,-0.653445 -1.63361,-1.826676 -0.62374,-1.173231 -0.62374,-2.851397 0,-1.514804 0.47523,-2.717737 0.49008,-1.202933 1.26234,-1.930634 0.7871,-0.7277 1.82667,-1.217784 1.05442,-0.490084 2.07915,-0.668296 1.03957,-0.178212 2.10884,-0.178212 z m 0,0.608892 q -1.24749,0 -2.42072,0.29702 -1.17323,0.28217 -2.28705,0.935615 -1.09898,0.653445 -1.76728,1.915782 -0.66829,1.262337 -0.66829,2.955354 0,1.499954 0.62374,2.584079 0.62374,1.069273 1.63361,1.663314 1.02472,0.594041 2.24251,1.054423 1.21778,0.445531 2.40586,0.905913 1.20294,0.460382 2.22766,1.039572 1.02472,0.57919 1.64846,1.618761 0.62375,1.024721 0.62375,2.45042 0,1.975186 -1.26234,3.19297 -1.26234,1.217784 -3.5791,1.217784 -2.22765,0 -4.14344,-1.856378 -1.91578,-1.856378 -2.52467,-5.554284 -0.29702,-0.193063 -0.698,0 0.40098,2.331611 0.40098,4.826584 0,0.697998 -0.0594,1.975186 3.68305,1.707868 7.02453,1.707868 2.76229,0 5.10875,-1.633613 2.34647,-1.648464 2.34647,-4.603818 0,-1.678166 -0.65345,-2.836546 -0.65344,-1.173231 -1.70787,-1.826676 -1.05442,-0.653445 -2.31676,-1.128678 -1.26233,-0.475232 -2.50982,-0.891061 -1.24749,-0.43068 -2.30191,-0.950466 -1.03957,-0.519786 -1.69302,-1.470251 -0.65344,-0.965317 -0.65344,-2.331611 0,-1.915782 1.29204,-3.059311 1.29204,-1.143529 3.6682,-1.143529 4.12859,0 5.68794,5.717644 0.46039,0.07425 0.6386,-0.207914 -0.49009,-3.62365 -2.1534,-5.093902 -1.64846,-1.470251 -4.17314,-1.470251 z"
         id="path6105"
         style="font-size:30.4149px;line-height:1.25;font-family:'Jacques Francois Shadow';-inkscape-font-specification:'Jacques Francois Shadow, Normal';fill:none;stroke:#000000;stroke-width:0.06;stroke-miterlimit:4;stroke-dasharray:none;stroke-opacity:1" />
      <path
         d="m 146.69156,43.36773 q 0,1.098976 -3.43058,1.425699 -0.11881,0.237616 0,0.697998 2.52467,-0.08911 5.16815,-0.08911 3.16327,0 6.08892,0.08911 0.11881,-0.267318 0,-0.697998 -4.93054,-0.297021 -4.96024,-1.425699 -0.16336,-3.683054 -0.16336,-8.821509 0,-5.168156 0.16336,-8.851211 0.0297,-1.128678 4.96024,-1.425698 0.14851,-0.371276 0,-0.697998 -3.90582,0.118808 -6.08892,0.118808 -1.82667,0 -5.16815,-0.118808 -0.0891,0.356424 0,0.697998 3.40088,0.326722 3.43058,1.425698 0.0891,2.732589 0.14851,8.242319 -2.73259,0.08911 -5.16815,0.08911 -4.06919,0 -5.89586,-0.0594 0,-4.989944 0.17821,-8.272021 0.0297,-1.128678 4.96024,-1.425698 0.0891,-0.28217 0,-0.697998 -3.89097,0.118808 -6.08892,0.118808 -1.81182,0 -5.16815,-0.118808 -0.11881,0.267318 0,0.697998 3.41573,0.326722 3.44543,1.425698 0.14851,3.489991 0.14851,8.301723 0,4.707775 -0.17821,9.370997 -0.0297,1.098976 -3.44544,1.425699 -0.1188,0.237616 0,0.697998 2.52468,-0.08911 5.16816,-0.08911 3.16327,0 6.08892,0.08911 0.11881,-0.237616 0,-0.697998 -4.93054,-0.297021 -4.96024,-1.425699 -0.14851,-4.470158 -0.14851,-8.361127 3.65335,-0.07426 5.89586,-0.07426 2.43556,0 5.16815,0.103957 -0.0297,3.311779 -0.14851,8.331425 z m -0.60889,0 q 0.11881,-5.910708 0.14851,-7.455214 -2.9108,-0.0594 -4.55926,-0.0594 -1.27719,0 -2.39102,0.01485 -1.09898,0.01485 -1.21778,0.01485 0,3.430586 0.14851,7.455214 0,0.08911 0.0594,0.178213 0.0594,0.08911 0.20792,0.14851 0.14851,0.0594 0.29702,0.133659 0.16336,0.0594 0.40097,0.118808 0.25247,0.0594 0.44553,0.103958 0.19307,0.04455 0.49009,0.08911 0.31187,0.04455 0.49008,0.07426 0.19307,0.0297 0.50494,0.0594 0.32672,0.0297 0.44553,0.0594 0.23761,0.831657 -0.0891,1.826676 -5.48003,-0.118808 -6.66811,-0.118808 -0.7871,0 -5.58398,0.118808 -0.37128,-1.024721 0,-1.915782 3.22267,-0.326723 3.25237,-0.876211 0.17821,-4.663222 0.17821,-9.341295 0,-4.78203 -0.14851,-8.272021 -0.0297,-0.549488 -3.31178,-0.87621 -0.25246,-0.950466 0.0594,-1.915782 1.30689,0 3.53454,0.07426 2.24251,0.07426 3.11872,0.07426 0.63859,0 2.46527,-0.0297 1.82667,-0.0297 3.16327,-0.0297 0.26731,0.846508 0.0297,1.826676 -3.28208,0.326722 -3.31178,0.87621 -0.17821,4.098883 -0.17821,7.663129 1.42569,0.08911 3.6088,0.0297 l 4.55926,-0.0594 q -0.0594,-4.841434 -0.14851,-7.633427 -0.0297,-0.549488 -3.31178,-0.87621 -0.26732,-1.039572 0.0594,-1.915782 2.15339,0.14851 5.83645,0.14851 0.698,0 2.83654,-0.0297 2.1534,-0.0297 3.6088,-0.0297 0.28217,0.846508 0.0446,1.826676 -3.29693,0.326722 -3.32663,0.87621 -0.14851,3.683055 -0.14851,8.821509 0,5.108753 0.14851,8.791807 0.0297,0.549488 3.32663,0.876211 0.23761,0.950465 -0.0743,1.915782 -4.79688,-0.118808 -5.58398,-0.118808 -1.18809,0 -6.66811,0.118808 -0.35643,-1.024721 0,-1.915782 3.25237,-0.326723 3.25237,-0.846509 z"
         id="path6107"
         style="font-size:30.4149px;line-height:1.25;font-family:'Jacques Francois Shadow';-inkscape-font-specification:'Jacques Francois Shadow, Normal';fill:none;fill-opacity:1;stroke:#000000;stroke-width:0.1;stroke-miterlimit:4;stroke-dasharray:none;stroke-opacity:1" />
      <path
         style="font-size:30.4149px;line-height:1.25;font-family:'Jacques Francois Shadow';-inkscape-font-specification:'Jacques Francois Shadow, Normal';fill:#000000;fill-opacity:1;stroke:#000000;stroke-width:0.0377074;stroke-miterlimit:4;stroke-dasharray:none;stroke-opacity:1"
         d="m 82.345915,45.419875 c -0.05298,-0.138049 -0.04518,-0.416119 0.01429,-0.509805 0.02753,-0.04338 0.273121,-0.118081 0.545753,-0.166015 0.816007,-0.143468 1.276998,-0.280223 1.802934,-0.534855 0.568262,-0.275122 0.869649,-0.507077 1.106207,-0.851364 0.237086,-0.345051 6.4882,-16.092818 6.453138,-16.256703 -0.01561,-0.07299 -0.08706,-0.27772 -0.158774,-0.454948 l -0.130384,-0.322235 0.207092,-0.271217 c 0.456917,-0.59841 0.774607,-1.445469 0.876511,-2.337066 0.03998,-0.349842 0.06059,-0.39133 0.228963,-0.461074 0.108016,-0.04474 0.206655,-0.05343 0.236998,-0.02087 0.02859,0.03067 1.907812,4.642557 4.176064,10.248628 2.335373,5.771981 4.183223,10.255803 4.260423,10.337982 0.40545,0.431581 1.63441,0.769258 3.34938,0.920295 0.69514,0.06122 1.1061,0.123421 1.13702,0.172091 0.0564,0.08883 0.0627,0.273357 0.0152,0.450347 -0.0329,0.122497 -0.0646,0.123814 -1.79184,0.07431 -1.42688,-0.04089 -8.37022,-0.01193 -8.960363,0.03737 -0.143888,0.01201 -0.157347,-0.0098 -0.174881,-0.282945 -0.02355,-0.366948 -0.01,-0.373682 1.030345,-0.511453 0.872416,-0.115533 1.15316,-0.201123 1.545797,-0.471265 0.324683,-0.223388 0.467058,-0.461857 0.467058,-0.782302 0,-0.147756 -0.385487,-1.207645 -1.097822,-3.018454 l -1.097823,-2.790735 -1.224891,-0.03187 c -0.67369,-0.01754 -2.198981,-0.01749 -3.389534,1.24e-4 l -2.164644,0.03199 -1.131837,2.833663 c -1.206572,3.020762 -1.212236,3.041015 -0.95898,3.427535 0.223224,0.340685 1.160809,0.618834 2.790325,0.827791 0.541459,0.06943 0.995199,0.126243 1.008311,0.126243 0.05001,0 0.103728,0.376579 0.06922,0.485294 -0.03459,0.108984 -0.224922,0.113815 -4.35389,0.110521 -2.374744,-0.0019 -4.391954,0.01741 -4.48269,0.04288 -0.122693,0.03445 -0.174631,0.02117 -0.202653,-0.05186 z m 13.518632,-9.009267 c 0.0527,-0.0527 -2.789661,-7.352019 -2.862475,-7.350968 -0.0343,5.29e-4 -0.69851,1.648674 -1.476036,3.662621 l -1.413679,3.66172 0.821311,0.03729 c 1.017138,0.04617 4.882404,0.03782 4.930879,-0.01066 z"
         id="path23294" />
      <path
         style="font-size:30.4149px;line-height:1.25;font-family:'Jacques Francois Shadow';-inkscape-font-specification:'Jacques Francois Shadow, Normal';fill:#000000;fill-opacity:1;stroke:#000000;stroke-width:0.0141403;stroke-miterlimit:4;stroke-dasharray:none;stroke-opacity:1"
         d="m 115.94861,45.916916 c -1.81335,-0.188881 -3.5176,-0.627788 -5.20662,-1.340903 l -0.71708,-0.302758 0.0217,-1.481624 c 0.0227,-1.553731 -0.0511,-2.961772 -0.22149,-4.222557 -0.14916,-1.103929 -0.15418,-1.059212 0.12152,-1.082037 0.27994,-0.02318 0.28453,-0.01439 0.48297,0.923472 0.54383,2.570216 1.70179,4.422206 3.50968,5.613228 0.98243,0.647221 1.94324,0.934019 3.12906,0.934019 1.60229,0 2.84746,-0.47367 3.70484,-1.409348 0.75955,-0.828918 1.07808,-1.73079 1.07687,-3.049013 -0.001,-1.238018 -0.2682,-2.097376 -0.91353,-2.939513 -0.75944,-0.991042 -1.76559,-1.546646 -5.00692,-2.764835 -2.40594,-0.904222 -3.30468,-1.362229 -4.01665,-2.04692 -0.98459,-0.946851 -1.42035,-2.047187 -1.42035,-3.586496 0,-1.643761 0.46305,-2.938395 1.42222,-3.976391 0.82789,-0.895921 2.14442,-1.539152 3.84528,-1.878735 0.5583,-0.111468 0.89228,-0.136485 1.77858,-0.13323 0.97503,0.0036 1.15754,0.02162 1.71423,0.16946 2.5345,0.673078 3.86527,2.363589 4.45788,5.662961 l 0.11069,0.616257 -0.13107,0.0918 c -0.25456,0.178302 -0.3911,0.120187 -0.48015,-0.204383 -0.15036,-0.548037 -0.54293,-1.551641 -0.83404,-2.132261 -1.16659,-2.326701 -2.8729,-3.403057 -5.21167,-3.287556 -1.6397,0.08098 -2.70196,0.496781 -3.55321,1.390855 -0.74005,0.777278 -1.05887,1.638354 -1.05887,2.859811 0,0.783055 0.11675,1.340717 0.40879,1.952611 0.18281,0.383035 0.34305,0.592844 0.79835,1.0453 0.81258,0.807511 1.37783,1.076809 4.80793,2.290625 2.7868,0.986171 4.01299,1.705002 4.7988,2.813188 0.70771,0.998064 0.97367,1.892242 0.97499,3.278013 10e-4,1.248947 -0.23151,2.138751 -0.79631,3.044933 -0.86793,1.392531 -2.88998,2.630956 -4.95777,3.036435 -0.50169,0.09838 -2.12228,0.16937 -2.63861,0.115589 z"
         id="path25348" />
      <path
         style="font-size:30.4149px;line-height:1.25;font-family:'Jacques Francois Shadow';-inkscape-font-specification:'Jacques Francois Shadow, Normal';fill:#000000;fill-opacity:1;stroke:#000000;stroke-width:0.0141403;stroke-miterlimit:4;stroke-dasharray:none;stroke-opacity:1"
         d="m 129.69783,45.154905 v -0.250529 l 0.35854,-0.04207 c 1.16322,-0.136485 2.1383,-0.402376 2.6017,-0.709449 0.46761,-0.309856 0.50693,-0.424 0.55335,-1.606108 0.17106,-4.35679 0.19136,-11.602886 0.0438,-15.644537 -0.0554,-1.516451 -0.0847,-1.638847 -0.46229,-1.926832 -0.43678,-0.333148 -1.51751,-0.646093 -2.61288,-0.756607 -0.37445,-0.03778 -0.42605,-0.0591 -0.4588,-0.189599 -0.0874,-0.348169 -0.13299,-0.341426 1.95489,-0.289014 2.23848,0.05619 3.74293,0.05991 6.87603,0.01699 l 2.27594,-0.03118 v 0.218241 0.218241 l -0.59237,0.04414 c -1.66438,0.124031 -3.07975,0.393065 -3.72283,0.707637 -0.44397,0.217178 -0.62433,0.447279 -0.66876,0.85321 -0.0671,0.613277 -0.16019,4.248987 -0.16024,6.260622 -5e-5,1.770142 0.0114,2.00869 0.0986,2.042117 0.13223,0.05074 9.17468,0.04818 10.29154,-0.0029 l 0.88108,-0.04031 -0.0272,-2.032757 c -0.0611,-4.571921 -0.12705,-6.462682 -0.23268,-6.666938 -0.27117,-0.524382 -1.40793,-0.955749 -2.92089,-1.108389 l -0.4209,-0.04246 v -0.242178 -0.242179 l 1.91741,0.04814 c 2.42252,0.06082 4.00778,0.06069 6.8902,-5.56e-4 l 2.29153,-0.04869 v 0.251339 0.25134 l -0.32736,6.08e-4 c -0.49253,9e-4 -1.928,0.17017 -2.64995,0.312476 -0.87035,0.171558 -1.47611,0.405235 -1.76083,0.679253 -0.22013,0.211866 -0.23437,0.249741 -0.27156,0.722426 -0.17016,2.162817 -0.19724,12.436318 -0.0428,16.233078 0.0686,1.686282 0.0684,1.685769 0.80319,2.04107 0.58721,0.28394 2.01001,0.544589 3.73486,0.684205 l 0.51443,0.04164 v 0.248184 0.248185 l -0.67031,-0.03546 c -1.37724,-0.07287 -6.04638,-0.09957 -8.18406,-0.04681 -1.21747,0.03005 -2.22326,0.04648 -2.23509,0.03651 -0.0118,-0.01 -0.0258,-0.111342 -0.0312,-0.225269 -0.009,-0.199253 0.001,-0.208857 0.27091,-0.25228 1.67824,-0.269992 2.11748,-0.386226 2.63523,-0.697344 0.56568,-0.339929 0.54473,-0.230735 0.60758,-3.166946 0.0303,-1.416503 0.0686,-3.364109 0.085,-4.328015 l 0.0299,-1.752555 -1.06822,-0.04443 c -1.34564,-0.05597 -8.85513,-0.05376 -9.64182,0.0028 l -0.58689,0.04223 0.047,3.49817 c 0.0258,1.923991 0.0657,3.882432 0.0887,4.352089 0.0404,0.827418 0.0472,0.859655 0.21872,1.038688 0.46287,0.483134 1.76353,0.816673 3.93717,1.009636 0.44583,0.03958 0.81368,0.0762 0.81743,0.08137 0.0447,0.0617 0.0711,0.338357 0.0374,0.390856 -0.0319,0.04959 -0.77956,0.05349 -2.69424,0.01402 -2.53924,-0.05233 -6.82167,-0.0263 -7.90347,0.04803 l -0.51442,0.03535 z"
         id="path25387" />
      <path
         style="fill:#000000;fill-opacity:1;stroke:#000000;stroke-width:0;stroke-miterlimit:4;stroke-dasharray:none;stroke-opacity:1"
         d="m 261.03313,173.43113 c -7.36567,-0.77684 -15.5618,-3.81883 -21.35531,-7.92601 -2.89645,-2.05336 -7.5482,-6.69838 -9.1504,-9.13714 -5.00423,-7.61714 -7.36036,-16.79131 -7.0454,-27.43302 0.20617,-6.96578 1.41647,-12.5916 3.90444,-18.14895 2.09348,-4.67618 4.03028,-7.5373 7.30238,-10.787376 5.76819,-5.729373 13.94234,-10.041776 21.9705,-11.590897 7.0332,-1.357131 14.04824,-1.200607 20.01889,0.446676 11.40966,3.147887 17.6878,10.249256 21.93384,24.809957 0.71208,2.44187 0.72534,2.56398 0.32639,3.00481 -0.89185,0.98549 -1.16167,0.67998 -3.50584,-3.96939 -4.04949,-8.03171 -8.30434,-13.611683 -12.60454,-16.530095 -3.01676,-2.04738 -7.50948,-3.902476 -11.26984,-4.653443 -2.871,-0.573355 -9.08364,-0.569042 -11.84835,0.0082 -5.70609,1.19142 -10.25055,3.715297 -14.16906,7.869124 -4.28524,4.542574 -7.85695,12.691544 -9.27113,21.152324 -1.14865,6.87219 -1.1022,13.60994 0.13647,19.7964 1.93127,9.64565 7.56252,18.07929 14.97059,22.42071 3.14519,1.8432 7.77821,3.35328 12.22292,3.98396 3.08286,0.43744 9.75221,0.49903 12.6072,0.11643 7.4285,-0.9955 13.10564,-3.62782 17.57202,-8.1476 1.74472,-1.7656 2.13637,-1.89177 2.92452,-0.94211 0.53362,0.64297 -0.25749,1.80726 -3.29101,4.84341 -3.02248,3.0251 -5.22515,4.59846 -9.07486,6.48216 -7.48147,3.66075 -15.51277,5.15361 -23.30442,4.33184 z"
         id="path25022"
         transform="scale(0.26458333)" />
    </g>
  </g>
</svg>
